<?xml version="1.0" encoding="UTF-8"?>
<svg version="1.1" viewBox="0 0 2048 1024" width="1280" height="1280" xmlns="http://www.w3.org/2000/svg">
<path transform="translate(0)" d="m0 0h2048v1024h-2048z" fill="#FCFCFC"/>
<path transform="translate(1127,271)" d="m0 0h19l25 3 22 5 21 7 21 10 18 12 14 12 11 13-3 3-14 7-9 8-7 11-4 12-2 13 1 1 1-6 8-16 9-10 9-6 15-5 7-1h14l12 3 8 4 8 7v2l-18 3-9 4-4 3h-2l-2 5-4 11v3l7-10 8-7 4 1 12 14 11 13 13 18 2 3-1 7-14 42-9 22-8 11-13 12-15 15-12 11-7 7-5 3h-15l-17-4-17-6h-4l-8 10-3 3-3-16-4 4-5 11-4-4-3-8v-8l4-13 1-1-1-13-5-26-4 4-5 10-2 9v15l3 14 8 20 11 20 14 19 7 8 19 1 87 1-1 9h-606l-2-1v-8l48-1h35l1-9 7-33 1-2h-12l2-20 6-31 8-29 9-26 9-23 2-3h-11l-17-3-16-6-10-6-10-9-8-7-16-9-8-10-8-11-8-7 4-1h16l5-1 12 6 6 5 5 9 3 15 5 4 11 5 4 1h19l15-5 26-12 21-10 36-13 23-7 29-6 29-4 24-2 61-2-24-5-31-3h-36l-37 3-11 1 3-2 51-17 57-18 48-15 30-9z" fill="#222021"/>
<path transform="translate(1016,137)" d="m0 0h52l26 3 27 6 30 10 23 10 19 10 11 7 16 11 14 11 10 9 8 7 16 16 9 11 14 19 12 19 10 18 12 26-1 2-28-24-11-9-15-12-17-11-22-12-7-8-10-10-11-9-15-11-18-11-12-7-20-9-27-9-28-6-27-3h-31l-31 4-25 6-25 9-25 12-16 10-12 8-10 8-14 12-15 15-7 8-8 10-10 14-11 19-7 14-13 32-6 24h-2l-14-19-12-16-7-9 10-25 10-21 16-27 10-13 11-14 11-12 7-7 5-6 11-9 8-7 13-10 17-11 18-10 25-12 25-9 27-7 25-4z" fill="#03DAE6"/>
<path transform="translate(809,627)" d="m0 0h54l7 1 13 11 15 11 9 5 17 10 19 9 33 11 22 5 25 3h37l25-3 23-5 20-6 22-9 24-12 14-9 9-7 14-12 3-2 5-1h55l-2 4-9 11-20 20-11 9-17 13-16 10-17 10-23 11-21 8-24 7-25 5-21 2h-52l-22-2-29-6-20-6-20-8-25-12-18-10-12-8-18-14-14-12-27-27z" fill="#03D8E4"/>
<path transform="translate(924,483)" d="m0 0h34l19 4 16 6 11 6 12 9 10 10 6 10 5 18 3 22v26l-1 6h-63l-6-7-7-12-5-14-2-10-1-16 2-21-3-6-11-8-13-6-11-3-8-1h-15l-20 3-16 4 3-3 17-8 18-5z" fill="#FAFCFC"/>
<path transform="translate(1016,137)" d="m0 0h52l26 3 27 6 30 10 23 10 19 10 11 7 16 11 14 11 10 9 8 7 16 16 9 11 14 19 12 19 10 18 12 26-1 2-28-24-11-9-15-12-17-11-22-12-7-8-10-10-11-9-15-11-18-11-12-7-20-9-27-9-28-6-27-3h-31l-31 4-25 6-25 9-25 12-16 10-12 8-10 8-14 12-15 15-7 8-8 10-10 14-11 19-7 14-13 32-6 24h-2l-14-19-12-16-7-9 10-25 10-21 16-27 10-13 11-14 11-12 7-7 5-6 11-9 8-7 13-10 17-11 18-10 25-12 25-9 27-7 25-4zm19 3-23 1-26 3-28 7-20 7-31 13-17 10-12 7-12 9-13 11-10 8-7 9-12 14-7 3-12 14-11 16-7 10-8 14-11 22-8 24 9 11 8 8 3 2h6l4-4 9-16 8-20 12-22 14-21 9-11 20-20 8-7 12-10 12-9 15-10 7-5 7-3 23-11 17-5 21-5 12-3 21-3 14-1h17l27 2 32 6 21 5 25 11 20 10 16 10 14 11 16 15h2v2h3l2 4 5 6 17 9 11 6 14 8 5 4h2v2l14 8 8 6 1-5-11-23-10-13-9-11-10-13-16-16-10-8-3-3-12-9-3-1-2-4-8-4-9-7-16-9-14-8-14-6-24-9-27-7-25-4-9-1-20-1z" fill="#04897E"/>
<path transform="translate(1019,777)" d="m0 0 3 2-1 6 3-3 8-4 11-1 6 3 4 1 5 6 3 3 2 6v16l-3 9-5 5-10 9-11 8-6 3-7 2h-9l-5-3-4-1-3-6-1-9 2-11-4 1 1-9 3-4 2-5h4l7-19z" fill="#202728"/>
<path transform="translate(899,517)" d="m0 0h2v36l3 21 6 21 2 5-1 1h-63l-1-1 1-15 5-16 8-14 7-9 9-10 12-11z" fill="#F5FBFC"/>
<path transform="translate(887,775)" d="m0 0h26l10 3 3 5-1 8-5 6-7 3-9 6-13 5-4 4 5 3 15 4 12 5 2 2v8l-16 8-24 6-2 3h-7l-7-3v-4l5-4v-22l-4-3 1-4 4-1 1-5 2-1 1-14 8-7-2-1-16 1 3-6 5-2z" fill="#202526"/>
<path transform="translate(1127,773)" d="m0 0h2v2l18-2h14l10 1 1 1v9h-17l5 2 1 6-3 13-3 8-3 21-1 12-3 2h-3l-1-6v-22l3-26v-9l-17 3-1 2-3 30-4 20-2 5-10 3-4-1-5-8-5-11-2-5h-2l-5-11v-2h-4l-1 7-9 32-2 2h-6l1-10 3-15h2l5-33v-7l2-4h10l3-3h5l1 3-2 6-2 1-1 7 3 1 9 25 5 12v2l3-1 1-4h3l3-25 1-17 3-11z" fill="#202828"/>
<path transform="translate(1287,357)" d="m0 0h18l1 2-15 5-9 6-3 5-1 3v7l6 12 9 13 2 6v7l-4 7-4 2h-11l-10-5-9-8-6-12-1-5v-10l3-10 5-8 4-5 10-7 10-4z" fill="#F8FCFC"/>
<path transform="translate(1098,471)" d="m0 0 1 4-5 25v6l21 42 13 23 14 21 5 7v2h-42l1-14v-13l-3-20-7-21-8-17-7-12 2-6 14-26z" fill="#EFFBFB"/>
<path transform="translate(1205,773)" d="m0 0h14l2 3v8l-2 1-5-1h-15l-5 2-4 9-5 16 13-5h16l3 1v8l-21 1-11 2-3 7-2 14 21-3 12-3 7-2 1 6-5 3-15 5-10 3h-17l-4-5v-9l3-28 4-17 3 1 1-4 7-7 7-3 3-2z" fill="#212223"/>
<path transform="translate(1030,788)" d="m0 0h11l5 4 2 5 4 4v10l-2 6-2 1-6 12-7 6-11 4h-6l-4-4v-25l3-13 6-7z" fill="#FBFCFC"/>
<path transform="translate(987,772)" d="m0 0h6l2 2-1 6-5 5-5 3-5 1-6 2-1-2 2-4-5 5-1 3v7l6 9 6 7 5 2 4 5 2 7 2 2v5l-1 1-12 1-8 7-7 4-8 2-7-3-1-4 4-3 16-6h4l2-3-1-5-6-8-4-4-5-3-4-5-3-2v-11l1-2h3l1-4 4-4 5-3 10-7z" fill="#1F292A"/>
<path transform="translate(946,775)" d="m0 0h4l-1 13-5 26-2 18-1 1v5l2 6-7 4-4-1-1-7v-16l1-10v-20l5-16z" fill="#222021"/>
<path transform="translate(809,627)" d="m0 0h54l7 1 13 11 15 11 9 5 17 10 19 9 33 11 5 2-4 1-27-8-19-8-24-12-3-3-22-15-13-11-5-1h-39l-10 1 3 5 1 2-4-2-6-7z" fill="#049891"/>
<path transform="translate(890,784)" d="m0 0h14l7 3 2 4-6 7-14 6-6 3v-9l2-13z" fill="#F9FCFC"/>
<path transform="translate(1133,677)" d="m0 0 4 1-18 7-13 4-27 5-27 3h-17l-24-2-22-4-4-2h8l19 3 11 1h37l25-3 23-5 20-6z" fill="#04968E"/>
<path transform="translate(884,823)" d="m0 0 16 4 8 3v4l-9 4-12 4h-5l1-15z" fill="#FAFCFC"/>
<path transform="translate(1268,447)" d="m0 0 7 6 8 11 1 5-5 6-9 6h-1z" fill="#EFFBFB"/>
<path transform="translate(795,355)" d="m0 0 2 4-6 22-1 5h-2l-14-19-3-4 1-2 9 6h6l3-3 4-8z" fill="#222021"/>
<path transform="translate(1219,627)" d="m0 0h55l-2 4-9 11h-2l2-4 3-4 1-3-15-1h-28l-11 4-6 4-2-1 6-7 3-2z" fill="#04AEAD"/>
<path transform="translate(809,627)" d="m0 0h54l6 2v1h-44l-10 1 3 5 1 2-4-2-6-7z" fill="#048F85"/>
<path transform="translate(949,776)" d="m0 0h1l-1 12-5 26-2 18-1 1v5l2 6-4 1-1-5 1-23 3-5z" fill="#04A09B"/>
<path transform="translate(1133,677)" d="m0 0 4 1-18 7-13 4-27 5-6 1h-8l-5-1v-1l25-3 23-5 20-6z" fill="#049B95"/>
<path transform="translate(1155,785)" d="m0 0 5 1 1 6-3 13-3 8-4 30h-1v-13l5-29 1-5 2-1 1-8z" fill="#04AAA7"/>
<path transform="translate(1252,628)" d="m0 0h22l-6 8-5 6h-2l2-4 3-4 1-3-15-1z" fill="#05867A"/>
<path transform="translate(942,819)" d="m0 0 1 4-1 9-1 1v5l2 6-4 1-1-5v-9l1-1 1-8h2z" fill="#03C1C5"/>
<path transform="translate(1315,311)" d="m0 0 3 4 7 15-1 2-9-8 2-1-2-7z" fill="#222021"/>
<path transform="translate(1091,689)" d="m0 0 4 1-9 3-13 2h-8l-5-1v-1l25-3z" fill="#04A09B"/>
<path transform="translate(1164,663)" d="m0 0h5l-4 3-17 8-10 3v-2l16-7z" fill="#04A09B"/>
<path transform="translate(1214,628)" d="m0 0h14l-4 2-11 4-6 4-2-1 6-7z" fill="#069691"/>
<path transform="translate(1060,793)" d="m0 0h2l1 3v16l-3 9-5 5-4 3 2-4 4-7 2-1 2-7v-12z" fill="#049D97"/>
<path transform="translate(868,628)" d="m0 0 4 2 14 11 2 4-5-2-14-12z" fill="#04968E"/>
<path transform="translate(888,644)" d="m0 0 4 2 6 4 9 5-1 2-5-2-13-9z" fill="#049D97"/>
<path transform="translate(1091,789)" d="m0 0h1v7l3 1 2 9-5-5-2-6v-5z" fill="#04A09C"/>
<path transform="translate(906,656)" d="m0 0 6 2 7 4-1 2-5-1-6-3z" fill="#04958C"/>
<path transform="translate(942,812)" d="m0 0h1v7l-1 3h-2v8h-1v-13z" fill="#058274"/>
<path transform="translate(1155,785)" d="m0 0 5 1 1 6-2 8h-3v-4l2-1 1-8z" fill="#04948C"/>
<path transform="translate(1192,786)" d="m0 0 1 2-5 12h-1l1-9 1-3z" fill="#04AEAD"/>
<path transform="translate(1213,806)" d="m0 0 4 1v8h-3z" fill="#05887D"/>
</svg>
